<svg width="11" height="18" viewBox="0 0 11 18" fill="none" xmlns="http://www.w3.org/2000/svg">
<path d="M3.32502 0.896056L3.32511 0.896158L10.042 7.87463C10.2696 8.11084 10.3979 8.42544 10.3979 8.75426C10.3979 9.08309 10.2696 9.39769 10.042 9.63389L3.32723 16.6109C3.21161 16.7337 3.07295 16.8324 2.91945 16.9017C2.7648 16.9716 2.5979 17.0105 2.42839 17.0164C2.25887 17.0224 2.08969 16.9952 1.93055 16.9363C1.7714 16.8774 1.62516 16.7878 1.50053 16.6724C1.37588 16.5569 1.27531 16.4177 1.20515 16.2627C1.13498 16.1076 1.09676 15.9401 1.09298 15.7698C1.0892 15.5996 1.11995 15.4304 1.18322 15.2724C1.24601 15.1156 1.33943 14.9732 1.45767 14.8529L7.32687 8.7543L1.45572 2.65514C1.33882 2.53377 1.24695 2.39046 1.18581 2.2332C1.12466 2.07591 1.09558 1.90804 1.10045 1.73926C1.10531 1.57049 1.14402 1.40458 1.21406 1.25108C1.28409 1.0976 1.38397 0.959789 1.5075 0.845239C1.63102 0.730707 1.77581 0.641636 1.93338 0.58266C2.09093 0.523688 2.25849 0.495837 2.42659 0.500503C2.59469 0.505169 2.76046 0.542273 2.9145 0.60995C3.06856 0.677635 3.20814 0.7747 3.32502 0.896056Z" fill="#EBEAEA" stroke="#EBEAEA"/>
</svg>
