<svg width="1050" height="675" viewBox="0 0 1050 675" fill="none" xmlns="http://www.w3.org/2000/svg">
<g clip-path="url(#clip0_1564_920)">
<rect width="1050" height="675" fill="#A8A7A7"/>
<rect x="1182.58" y="701.816" width="1272.69" height="411.377" transform="rotate(-135 1182.58 701.816)" fill="#D9D9D9"/>
<rect x="507.491" y="1248.9" width="1119.19" height="403.627" transform="rotate(-135 507.491 1248.9)" fill="#D9D9D9"/>
<g filter="url(#filter0_di_1564_920)">
<path d="M465.749 301.418C465.456 306.008 465.188 310.549 464.943 315.041C464.699 319.533 464.382 324.074 463.991 328.664L432.937 330.275V339.504H459.89L458.425 362.209L432.79 362.941L432.937 406.301L395.876 407.033L398.22 301.418H465.749ZM546.901 302.297L546.169 333.351L524.343 334.23L518.776 403.664L487.868 405.275L488.015 335.842L466.188 337.013L467.067 302.443L546.901 302.297ZM638.527 355.324C638.527 359.767 638.015 364.064 636.989 368.215C635.964 372.316 634.475 376.174 632.521 379.787C630.617 383.4 628.273 386.721 625.49 389.748C622.756 392.726 619.655 395.29 616.188 397.438C612.771 399.587 609.035 401.271 604.982 402.492C600.93 403.664 596.633 404.25 592.092 404.25C587.697 404.25 583.498 403.688 579.494 402.565C575.539 401.442 571.828 399.88 568.361 397.878C564.895 395.827 561.745 393.386 558.913 390.554C556.13 387.673 553.737 384.499 551.735 381.032C549.782 377.516 548.244 373.757 547.121 369.753C546.047 365.749 545.51 361.574 545.51 357.228C545.51 352.98 546.022 348.83 547.048 344.777C548.073 340.676 549.538 336.818 551.442 333.205C553.396 329.592 555.739 326.271 558.474 323.244C561.208 320.217 564.26 317.604 567.629 315.407C571.047 313.21 574.733 311.501 578.688 310.28C582.644 309.059 586.818 308.449 591.213 308.449C598.293 308.449 604.738 309.548 610.549 311.745C616.408 313.942 621.389 317.092 625.49 321.193C629.641 325.246 632.839 330.178 635.085 335.988C637.38 341.75 638.527 348.195 638.527 355.324ZM606.008 357.228C606.008 355.129 605.69 353.102 605.056 351.149C604.47 349.147 603.591 347.389 602.419 345.876C601.247 344.313 599.782 343.068 598.024 342.14C596.315 341.164 594.338 340.676 592.092 340.676C589.797 340.676 587.746 341.091 585.939 341.921C584.133 342.751 582.57 343.898 581.252 345.363C579.982 346.779 579.006 348.464 578.322 350.417C577.639 352.321 577.297 354.347 577.297 356.496C577.297 358.547 577.59 360.597 578.176 362.648C578.762 364.699 579.641 366.554 580.812 368.215C581.984 369.875 583.425 371.218 585.134 372.243C586.892 373.268 588.918 373.781 591.213 373.781C593.508 373.781 595.559 373.342 597.365 372.463C599.221 371.535 600.783 370.314 602.053 368.801C603.322 367.238 604.299 365.456 604.982 363.454C605.666 361.452 606.008 359.377 606.008 357.228Z" fill="#6D666A"/>
</g>
<ellipse cx="602.758" cy="360.488" rx="47.0383" ry="46.4876" fill="#6D666A"/>
<path d="M601.602 365.384C604.561 365.384 606.96 363.014 606.96 360.089C606.96 357.165 604.561 354.794 601.602 354.794C598.643 354.794 596.245 357.165 596.245 360.089C596.245 363.014 598.643 365.384 601.602 365.384Z" fill="white"/>
<path d="M601.629 333.773C596.357 333.773 591.204 335.318 586.82 338.212C582.437 341.107 579.021 345.221 577.003 350.035C574.986 354.848 574.458 360.145 575.486 365.255C576.515 370.365 579.053 375.059 582.781 378.743C586.509 382.427 591.258 384.936 596.429 385.952C601.6 386.969 606.959 386.447 611.83 384.453C616.7 382.46 620.863 379.083 623.792 374.751C626.721 370.419 628.284 365.326 628.284 360.116C628.284 356.656 627.595 353.231 626.255 350.035C624.916 346.839 622.952 343.934 620.477 341.488C618.002 339.042 615.064 337.102 611.83 335.778C608.596 334.454 605.13 333.773 601.629 333.773V333.773ZM601.629 381.19C597.412 381.19 593.289 379.954 589.782 377.638C586.275 375.323 583.542 372.031 581.928 368.18C580.314 364.33 579.892 360.092 580.715 356.004C581.538 351.916 583.569 348.161 586.551 345.214C589.533 342.266 593.333 340.259 597.469 339.446C601.606 338.633 605.893 339.05 609.79 340.645C613.686 342.241 617.016 344.942 619.359 348.407C621.703 351.873 622.953 355.948 622.953 360.116C622.953 365.705 620.707 371.065 616.708 375.017C612.709 378.97 607.285 381.19 601.629 381.19V381.19Z" fill="white"/>
<path d="M601.629 344.31C597.388 344.31 593.32 345.975 590.32 348.939C587.321 351.903 585.636 355.924 585.636 360.116H590.967C590.967 357.321 592.091 354.641 594.09 352.665C596.09 350.689 598.802 349.578 601.629 349.578V344.31Z" fill="white"/>
</g>
<defs>
<filter id="filter0_di_1564_920" x="388.876" y="301.418" width="250.651" height="116.615" filterUnits="userSpaceOnUse" color-interpolation-filters="sRGB">
<feFlood flood-opacity="0" result="BackgroundImageFix"/>
<feColorMatrix in="SourceAlpha" type="matrix" values="0 0 0 0 0 0 0 0 0 0 0 0 0 0 0 0 0 0 127 0" result="hardAlpha"/>
<feOffset dx="-3" dy="7"/>
<feGaussianBlur stdDeviation="2"/>
<feComposite in2="hardAlpha" operator="out"/>
<feColorMatrix type="matrix" values="0 0 0 0 0 0 0 0 0 0 0 0 0 0 0 0 0 0 0.25 0"/>
<feBlend mode="normal" in2="BackgroundImageFix" result="effect1_dropShadow_1564_920"/>
<feBlend mode="normal" in="SourceGraphic" in2="effect1_dropShadow_1564_920" result="shape"/>
<feColorMatrix in="SourceAlpha" type="matrix" values="0 0 0 0 0 0 0 0 0 0 0 0 0 0 0 0 0 0 127 0" result="hardAlpha"/>
<feOffset dy="4"/>
<feGaussianBlur stdDeviation="2"/>
<feComposite in2="hardAlpha" operator="arithmetic" k2="-1" k3="1"/>
<feColorMatrix type="matrix" values="0 0 0 0 0 0 0 0 0 0 0 0 0 0 0 0 0 0 0.25 0"/>
<feBlend mode="normal" in2="shape" result="effect2_innerShadow_1564_920"/>
</filter>
<clipPath id="clip0_1564_920">
<rect width="1050" height="675" fill="white"/>
</clipPath>
</defs>
</svg>
