<svg width="35" height="34" viewBox="0 0 35 34" fill="none" xmlns="http://www.w3.org/2000/svg">
<rect x="4" y="3" width="27" height="29" fill="white"/>
<path d="M30.6578 0H3.83222C2.81585 0 1.84111 0.395354 1.12243 1.09909C0.403751 1.80282 0 2.75729 0 3.75252V30.0202C0 31.0154 0.403751 31.9699 1.12243 32.6736C1.84111 33.3773 2.81585 33.7727 3.83222 33.7727H30.6578C31.6741 33.7727 32.6489 33.3773 33.3676 32.6736C34.0863 31.9699 34.49 31.0154 34.49 30.0202V3.75252C34.49 2.75729 34.0863 1.80282 33.3676 1.09909C32.6489 0.395354 31.6741 0 30.6578 0Z" fill="#3D3D3D"/>
<path d="M13.2995 3.00857C13.2303 2.99532 13.159 2.99746 13.0906 3.01482C13.0223 3.03219 12.9586 3.06437 12.9041 3.10908C12.8496 3.15379 12.8056 3.20994 12.7752 3.27355C12.7449 3.33715 12.7288 3.40666 12.7283 3.47716V14.3506L8.81558 10.4368C8.76532 10.3873 8.70481 10.3494 8.63831 10.3258C8.5718 10.3022 8.50093 10.2935 8.4307 10.3003C8.36047 10.3071 8.29259 10.3293 8.23186 10.3652C8.17113 10.4011 8.11902 10.4499 8.07922 10.5082C8.02694 10.5872 7.99937 10.6801 8.00001 10.7748V22.0031C7.99938 22.3541 8.06816 22.7018 8.20238 23.0261C8.3366 23.3505 8.53362 23.6451 8.7821 23.893L13.8752 28.9917C14.3762 29.4928 15.0555 29.7748 15.764 29.776H19.4904C19.8409 29.776 20.1879 29.707 20.5116 29.5728C20.8353 29.4386 21.1294 29.2419 21.377 28.9939L26.4701 23.893C26.7179 23.6447 26.9143 23.3499 27.0481 23.0256C27.1819 22.7013 27.2505 22.3539 27.25 22.0031V17.9609C27.2504 17.6102 27.1817 17.2628 27.0477 16.9387C26.9137 16.6146 26.717 16.3201 26.469 16.0721L13.545 3.13911C13.4782 3.07235 13.3921 3.02692 13.2995 3.00857ZM14.9987 16.9568C15.2112 16.9568 15.415 17.041 15.5655 17.1911L17.6272 19.2551L19.6846 17.1911C19.7586 17.1163 19.8468 17.0569 19.944 17.0163C20.0412 16.9757 20.1455 16.9549 20.2508 16.9549C20.3561 16.9549 20.4603 16.9757 20.5575 17.0163C20.6547 17.0569 20.7429 17.1163 20.817 17.1911L22.2897 18.6649C22.4401 18.8154 22.5251 19.019 22.5262 19.2317V20.8004C22.5261 21.0128 22.4419 21.2166 22.2919 21.3671L18.1862 25.4952C18.1116 25.5699 18.023 25.6292 17.9254 25.6696C17.8279 25.71 17.7233 25.7309 17.6178 25.7309C17.5122 25.7309 17.4076 25.71 17.3101 25.6696C17.2125 25.6292 17.1239 25.5699 17.0493 25.4952L12.957 21.3671C12.8075 21.2173 12.7237 21.0142 12.7238 20.8026V19.2317C12.7237 19.1267 12.7444 19.0227 12.7848 18.9258C12.8252 18.8289 12.8845 18.741 12.9592 18.6672L14.4319 17.1922C14.5061 17.1174 14.5944 17.0581 14.6917 17.0177C14.789 16.9773 14.8933 16.9566 14.9987 16.9568Z" fill="white"/>
</svg>
