<svg width="35" height="34" viewBox="0 0 35 34" fill="none" xmlns="http://www.w3.org/2000/svg">
<rect x="4" y="3" width="27" height="29" fill="white"/>
<path d="M30.6578 0H3.83222C2.81585 0 1.84111 0.395354 1.12243 1.09909C0.403751 1.80282 0 2.75729 0 3.75252V30.0202C0 31.0154 0.403751 31.9699 1.12243 32.6736C1.84111 33.3773 2.81585 33.7727 3.83222 33.7727H30.6578C31.6741 33.7727 32.6489 33.3773 33.3676 32.6736C34.0863 31.9699 34.49 31.0154 34.49 30.0202V3.75252C34.49 2.75729 34.0863 1.80282 33.3676 1.09909C32.6489 0.395354 31.6741 0 30.6578 0Z" fill="#3D3D3D"/>
<path d="M30.7633 23.6087C30.5149 23.5964 30.2687 23.6604 30.0577 23.792C29.8467 23.9236 29.681 24.1166 29.5828 24.3451V23.6087H28.2538V28.5162H29.5909V25.3544C29.5909 24.8538 29.8606 24.5776 30.274 24.5776C30.4515 24.5917 30.6164 24.6752 30.7328 24.81C30.8492 24.9448 30.9077 25.1201 30.8957 25.2978V25.4383H32.1746V25.0637C32.1898 24.8725 32.164 24.6803 32.099 24.4998C32.0341 24.3194 31.9314 24.1548 31.7978 24.0172C31.6643 23.8795 31.503 23.7719 31.3246 23.7015C31.1462 23.631 30.9548 23.5994 30.7633 23.6087ZM25.6621 27.4811C25.4986 27.4949 25.334 27.4747 25.1786 27.422C25.0233 27.3692 24.8805 27.2849 24.7592 27.1744C24.6379 27.0639 24.5408 26.9295 24.4739 26.7797C24.4069 26.6299 24.3716 26.4679 24.3702 26.3039H27.6984C27.7405 26.107 27.7606 25.9061 27.7581 25.7048C27.7697 25.4109 27.7175 25.118 27.605 24.8463C27.4924 24.5746 27.3223 24.3306 27.1063 24.131C26.8903 23.9315 26.6336 23.7811 26.3539 23.6904C26.0741 23.5997 25.7781 23.5707 25.486 23.6055C25.1633 23.5912 24.841 23.644 24.5396 23.7604C24.2382 23.8768 23.9642 24.0544 23.7348 24.282C23.5055 24.5095 23.3257 24.7821 23.2069 25.0826C23.0881 25.383 23.0328 25.7048 23.0444 26.0277C23.0315 26.3691 23.0913 26.7093 23.2199 27.0258C23.3485 27.3422 23.543 27.6277 23.7904 27.8632C24.0378 28.0988 24.3326 28.2789 24.655 28.3918C24.9774 28.5046 25.3201 28.5476 25.6604 28.5178C26.143 28.5667 26.6281 28.4523 27.038 28.1929C27.4478 27.9335 27.7588 27.5441 27.9212 27.0871L26.7908 26.643C26.7371 26.8962 26.5927 27.1211 26.3849 27.2754C26.177 27.4297 25.92 27.5028 25.6621 27.4811ZM25.4877 24.5615C26.0803 24.5615 26.4824 24.8844 26.4824 25.3818L26.4743 25.4238H24.3751C24.4304 25.1726 24.572 24.9488 24.7753 24.7913C24.9786 24.6337 25.2306 24.5524 25.4877 24.5615ZM22.8652 24.6955V23.6023H18.5956V24.7407H21.2036L18.5116 27.3777V28.5162H22.9411V27.3212H20.1668L22.8652 24.6955ZM16.1879 27.4811C16.0245 27.4944 15.8601 27.4739 15.705 27.421C15.5499 27.368 15.4073 27.2837 15.2861 27.1733C15.1649 27.0629 15.0678 26.9287 15.0007 26.7791C14.9336 26.6296 14.898 26.4678 14.8961 26.3039H18.2242C18.267 26.1071 18.2875 25.9061 18.2856 25.7048C18.297 25.4108 18.2445 25.1179 18.1318 24.8462C18.0191 24.5746 17.8488 24.3305 17.6327 24.131C17.4166 23.9314 17.1598 23.7811 16.88 23.6904C16.6001 23.5997 16.304 23.5707 16.0119 23.6055C15.6893 23.5915 15.3672 23.6444 15.066 23.7609C14.7648 23.8774 14.491 24.0551 14.2618 24.2826C14.0326 24.5101 13.853 24.7826 13.7342 25.083C13.6155 25.3833 13.5602 25.705 13.5719 26.0277C13.5594 26.3688 13.6195 26.7086 13.7484 27.0246C13.8772 27.3406 14.0718 27.6255 14.3192 27.8606C14.5666 28.0956 14.8612 28.2753 15.1834 28.3878C15.5056 28.5003 15.848 28.5429 16.1879 28.5129C16.6706 28.5622 17.1557 28.4479 17.5657 28.1885C17.9756 27.929 18.2866 27.5395 18.4487 27.0822L17.3183 26.6381C17.2652 26.8924 17.121 27.1184 16.9128 27.2737C16.7046 27.429 16.4467 27.5027 16.1879 27.4811ZM16.0135 24.5615C16.6045 24.5615 17.0066 24.8844 17.0066 25.3818V25.4238H14.8961C14.9521 25.1724 15.0944 24.9485 15.2982 24.791C15.502 24.6335 15.7561 24.5523 16.0135 24.5615ZM11.287 27.4811C11.1236 27.4944 10.9592 27.4739 10.804 27.421C10.6489 27.368 10.5063 27.2837 10.3851 27.1733C10.2639 27.0629 10.1668 26.9287 10.0997 26.7791C10.0326 26.6296 9.99699 26.4678 9.9951 26.3039H13.32C13.3628 26.1071 13.3833 25.9061 13.3814 25.7048C13.3928 25.4108 13.3403 25.1179 13.2276 24.8462C13.1149 24.5746 12.9446 24.3305 12.7285 24.131C12.5124 23.9314 12.2556 23.7811 11.9757 23.6904C11.6959 23.5997 11.3998 23.5707 11.1077 23.6055C10.7851 23.5915 10.463 23.6444 10.1618 23.7609C9.86059 23.8774 9.58677 24.0551 9.35758 24.2826C9.12838 24.5101 8.94876 24.7826 8.83004 25.083C8.71131 25.3833 8.65604 25.705 8.66772 26.0277C8.65449 26.369 8.71408 26.7092 8.8425 27.0257C8.97093 27.3421 9.16526 27.6276 9.41257 27.8632C9.65988 28.0987 9.95451 28.2789 10.2769 28.3918C10.5992 28.5047 10.9419 28.5476 11.2821 28.5178C11.7647 28.567 12.2499 28.4527 12.6599 28.1933C13.0698 27.9339 13.3808 27.5443 13.5429 27.0871L12.4125 26.643C12.3585 26.8954 12.2145 27.1196 12.0074 27.2738C11.8004 27.428 11.5443 27.5017 11.287 27.4811ZM11.1126 24.5615C11.7036 24.5615 12.1057 24.8844 12.1057 25.3818V25.4238H10.0064C10.0618 25.1739 10.2026 24.9511 10.4045 24.7938C10.6063 24.6364 10.8567 24.5543 11.1126 24.5615ZM6.99476 24.3419C6.82709 24.0908 6.59461 23.8898 6.32198 23.7602C6.04934 23.6305 5.7467 23.5771 5.44615 23.6055C5.1243 23.593 4.80349 23.6495 4.50523 23.7711C4.20697 23.8927 3.93814 24.0766 3.71673 24.3106C3.49533 24.5445 3.32647 24.8231 3.22147 25.1276C3.11647 25.4321 3.07775 25.7555 3.1079 26.0762C3.07723 26.3945 3.11562 26.7156 3.22044 27.0177C3.32526 27.3198 3.49405 27.5957 3.71526 27.8265C3.93648 28.0574 4.20492 28.2378 4.50225 28.3554C4.79957 28.4731 5.11879 28.5251 5.43808 28.5081C5.74338 28.5399 6.05172 28.4921 6.33303 28.3693C6.61434 28.2464 6.85902 28.0528 7.04321 27.8073V28.5081H8.31407V21.2608H6.99476V24.3419ZM5.73359 27.4875C5.55259 27.4897 5.37316 27.4537 5.20693 27.3821C5.04071 27.3104 4.8914 27.2046 4.76868 27.0716C4.64596 26.9385 4.55258 26.7811 4.49459 26.6096C4.4366 26.4382 4.41529 26.2564 4.43205 26.0762C4.41478 25.8945 4.43554 25.7112 4.493 25.538C4.55047 25.3647 4.64338 25.2054 4.76582 25.07C4.88825 24.9347 5.03754 24.8263 5.20416 24.7518C5.37078 24.6773 5.55108 24.6383 5.73359 24.6374C5.91536 24.6407 6.09451 24.6813 6.25999 24.7566C6.42547 24.8319 6.57376 24.9403 6.69572 25.0751C6.81768 25.2099 6.91072 25.3683 6.9691 25.5405C7.02747 25.7127 7.04995 25.895 7.03514 26.0762C7.04889 26.2558 7.02549 26.4363 6.96639 26.6065C6.9073 26.7766 6.81377 26.9328 6.69165 27.0652C6.56953 27.1977 6.42144 27.3035 6.2566 27.3762C6.09176 27.4488 5.91373 27.4867 5.73359 27.4875ZM12.364 9.20617H17.2521V12.066H12.364V9.20617ZM12.364 13.1705H17.2521V16.0304H12.364V13.1705ZM18.2775 13.1705H23.1656V16.0304H18.2775V13.1705ZM24.1797 17.1365H29.0677V19.9964H24.1797V17.1365ZM18.2775 17.1365H23.1656V19.9964H18.2775V17.1365ZM12.364 17.1365H17.2521V19.9964H12.364V17.1365ZM6.46187 17.1365H11.3499V19.9964H6.46187V17.1365ZM24.1797 13.1705H29.0677V16.0304H24.1797V13.1705ZM24.1797 9.20617H29.0677V12.066H24.1797V9.20617ZM24.1797 5.24017H29.0677V8.10002H24.1797V5.24017Z" fill="white"/>
</svg>
