<svg width="36" height="23" viewBox="0 0 36 23" fill="none" xmlns="http://www.w3.org/2000/svg">
<rect x="3" y="2" width="30" height="19" fill="white"/>
<path d="M34.3937 3.75767C34.1985 3.08314 33.8181 2.47247 33.2931 1.99055C32.7532 1.49381 32.0915 1.13849 31.3705 0.958109C28.672 0.269351 17.8609 0.269351 17.8609 0.269351C13.3539 0.219695 8.84792 0.438096 4.36852 0.923323C3.64748 1.11703 2.98704 1.48029 2.44596 1.98081C1.91431 2.47616 1.52923 3.087 1.32806 3.75628C0.844829 6.27719 0.61004 8.83687 0.626863 11.4008C0.609621 13.9624 0.843833 16.5213 1.32806 19.0453C1.52492 19.7118 1.90857 20.3199 2.44165 20.811C2.97474 21.3022 3.63858 21.657 4.36852 21.8449C7.10292 22.5322 17.8609 22.5322 17.8609 22.5322C22.3737 22.582 26.8854 22.3636 31.3705 21.8783C32.0915 21.6979 32.7532 21.3426 33.2931 20.8458C33.8179 20.364 34.1978 19.7532 34.3923 19.0787C34.8881 16.5588 35.1292 13.998 35.1122 11.4328C35.1495 8.85671 34.9087 6.2839 34.3937 3.75628V3.75767ZM14.4239 16.1651V6.63793L23.4188 11.4022L14.4239 16.1651Z" fill="#3D3D3D"/>
</svg>
