<svg width="35" height="35" viewBox="0 0 35 35" fill="none" xmlns="http://www.w3.org/2000/svg">
<g clip-path="url(#clip0_1547_167)">
<ellipse cx="17.8656" cy="17.2046" rx="17.245" ry="17.245" fill="#3D3D3D"/>
<path d="M17.7518 32.8363C26.2839 32.8363 33.2005 25.9197 33.2005 17.3877C33.2005 8.85562 26.2839 1.93903 17.7518 1.93903C9.21981 1.93903 2.30322 8.85562 2.30322 17.3877C2.30322 25.9197 9.21981 32.8363 17.7518 32.8363Z" fill="#3D3D3D" stroke="#3D3D3D" stroke-width="0.729167" stroke-linecap="round" stroke-linejoin="round"/>
<path d="M24.3286 20.8563C25.1283 20.5329 26.5503 20.1032 26.9786 20.622C27.4413 21.1832 26.8564 22.4018 26.3175 23.3482" stroke="white" stroke-width="2" stroke-linecap="round" stroke-linejoin="round"/>
<path d="M8.98401 21.8592C10.2479 22.863 13.9807 24.3992 17.9571 24.3992C20.5661 24.4607 23.1263 23.6851 25.2625 22.1861M15.1678 14.6033V16.9745C15.1678 17.3557 15.3192 17.7212 15.5887 17.9907C15.8582 18.2602 16.2237 18.4116 16.6048 18.4116C16.986 18.4116 17.3515 18.2602 17.621 17.9907C17.8905 17.7212 18.0419 17.3557 18.0419 16.9745V14.6033M18.0419 16.9745V18.4116M7.97949 16.1123C7.97949 15.7311 8.1309 15.3656 8.4004 15.0961C8.66991 14.8266 9.03544 14.6752 9.41657 14.6752C9.79771 14.6752 10.1632 14.8266 10.4327 15.0961C10.7022 15.3656 10.8537 15.7311 10.8537 16.1123V18.4116M7.97949 14.6752V18.4116M10.8537 16.1123C10.8537 15.7311 11.0051 15.3656 11.2746 15.0961C11.5441 14.8266 11.9096 14.6752 12.2907 14.6752C12.6719 14.6752 13.0374 14.8266 13.3069 15.0961C13.5764 15.3656 13.7278 15.7311 13.7278 16.1123V18.4116" stroke="white" stroke-width="2" stroke-linecap="round" stroke-linejoin="round"/>
<path d="M23.0227 12.967C23.0227 12.761 23.1897 12.5941 23.3956 12.5941C23.6016 12.5941 23.7686 12.761 23.7686 12.967C23.7686 13.1729 23.6016 13.3399 23.3956 13.3399C23.1897 13.3399 23.0227 13.173 23.0227 12.967Z" fill="white" stroke="white" stroke-width="2"/>
<path d="M23.4141 14.6033V18.4116M19.5771 18.0868C19.9139 18.345 20.3387 18.4604 20.7598 18.408H21.0817C21.3339 18.4076 21.5757 18.3071 21.7538 18.1286C21.9319 17.9501 22.0318 17.7081 22.0317 17.4559C22.0318 17.2037 21.9319 16.9618 21.7538 16.7833C21.5757 16.6047 21.3339 16.5042 21.0817 16.5039H20.4372C20.3123 16.5038 20.1887 16.4791 20.0733 16.4312C19.958 16.3832 19.8532 16.3131 19.765 16.2247C19.6768 16.1362 19.6068 16.0313 19.5592 15.9159C19.5115 15.8004 19.4871 15.6767 19.4873 15.5518C19.4871 15.4269 19.5115 15.3032 19.5592 15.1877C19.6068 15.0723 19.6768 14.9673 19.765 14.8789C19.8532 14.7905 19.958 14.7203 20.0733 14.6724C20.1887 14.6245 20.3123 14.5998 20.4372 14.5997H20.7598C21.1806 14.548 21.6048 14.6636 21.9411 14.9216M27.5242 17.688C27.3984 17.9079 27.2167 18.0907 26.9975 18.2178C26.7783 18.3448 26.5294 18.4117 26.2761 18.4116C25.8949 18.4116 25.5294 18.2602 25.2599 17.9907C24.9904 17.7212 24.839 17.3556 24.839 16.9745V16.0404C24.839 15.6593 24.9904 15.2937 25.2599 15.0242C25.5294 14.7547 25.8949 14.6033 26.2761 14.6033C26.529 14.6032 26.7775 14.6698 26.9964 14.7965C27.2153 14.9231 27.3969 15.1054 27.5227 15.3247" stroke="white" stroke-width="2" stroke-linecap="round" stroke-linejoin="round"/>
</g>
<defs>
<clipPath id="clip0_1547_167">
<rect width="34.49" height="34.49" fill="white" transform="translate(0.506836 0.1427)"/>
</clipPath>
</defs>
</svg>
