<svg width="36" height="36" viewBox="0 0 36 36" fill="none" xmlns="http://www.w3.org/2000/svg">
<ellipse cx="17.8656" cy="18.2046" rx="17.245" ry="17.245" fill="white"/>
<path d="M17.8708 1.58704C8.69047 1.58704 1.25293 9.02458 1.25293 18.2049C1.25293 27.379 8.69047 34.8228 17.8708 34.8228C27.0512 34.8228 34.4887 27.379 34.4887 18.2049C34.4887 9.02458 27.0512 1.58704 17.8708 1.58704ZM14.9222 24.7617C13.142 24.7617 11.3628 24.1718 9.99394 22.9878C8.31138 21.5378 7.31638 19.5582 7.18136 17.4156C7.11956 16.3914 7.26394 15.3653 7.60594 14.398C7.94794 13.4307 8.48061 12.5419 9.17239 11.7842C10.7521 10.0372 13.5865 7.32125 13.706 7.20284C13.8891 7.02779 14.105 6.89059 14.3412 6.79911C14.5775 6.70763 14.8295 6.66367 15.0827 6.66975C15.336 6.67583 15.5856 6.73183 15.8172 6.83453C16.0488 6.93724 16.2578 7.08463 16.4323 7.26828C17.1625 8.03685 17.1407 9.25931 16.3669 9.99465C16.3399 10.0217 13.5159 12.7314 12.0234 14.3766C11.6791 14.7548 11.4137 15.1979 11.2429 15.6799C11.072 16.162 10.9991 16.6733 11.0284 17.184C11.099 18.2766 11.6235 19.2986 12.5105 20.0724C13.679 21.084 15.9888 21.3062 17.4336 20.0132C18.0952 19.3983 18.7323 18.7577 19.3436 18.0928C19.5148 17.9064 19.7211 17.7557 19.9508 17.6493C20.1804 17.5429 20.4288 17.483 20.6817 17.473C20.9346 17.4629 21.187 17.503 21.4243 17.5908C21.6617 17.6786 21.8793 17.8125 22.0648 17.9847C22.4408 18.3316 22.6638 18.8134 22.685 19.3245C22.7063 19.8356 22.5239 20.3343 22.178 20.7111C22.1292 20.7599 20.9991 21.9876 20.0031 22.886C18.6072 24.1354 16.7678 24.7628 14.9232 24.7628L14.9222 24.7617ZM26.5692 24.6257C24.9895 26.3726 22.1551 29.0938 22.0357 29.207C21.6773 29.5496 21.201 29.7414 20.7052 29.7429C20.4444 29.7431 20.1863 29.6904 19.9464 29.5882C19.7065 29.4859 19.4898 29.3361 19.3093 29.1478C19.1342 28.9642 18.997 28.7478 18.9055 28.5112C18.8141 28.2745 18.7701 28.0221 18.7762 27.7685C18.7823 27.5148 18.8383 27.2648 18.941 27.0328C19.0437 26.8008 19.1911 26.5913 19.3747 26.4162C19.4017 26.3892 22.2309 23.6795 23.7182 22.0343C24.0626 21.6561 24.3279 21.213 24.4988 20.7309C24.6696 20.2489 24.7425 19.7375 24.7132 19.2269C24.6426 18.1343 24.1181 17.1061 23.2311 16.3385C22.0627 15.3269 19.7528 15.1046 18.3081 16.3977C17.4481 17.1715 16.4095 18.3077 16.3981 18.3181C15.6783 19.1023 14.461 19.1511 13.6769 18.4313C12.8927 17.7116 12.8387 16.4891 13.5637 15.705C13.6125 15.651 14.7373 14.4233 15.7385 13.5249C18.4815 11.0634 22.9715 11.0146 25.7456 13.4169C27.4282 14.872 28.4232 16.8516 28.553 18.9943C28.6175 20.0181 28.475 21.0445 28.134 22.0121C27.793 22.9796 27.2605 23.8685 26.5682 24.6257H26.5692Z" fill="#3D3D3D"/>
</svg>
