<svg width="36" height="36" viewBox="0 0 36 36" fill="none" xmlns="http://www.w3.org/2000/svg">
<rect x="3" y="4" width="30" height="28" fill="white"/>
<ellipse cx="18.122" cy="17.8" rx="17.2407" ry="17.245" fill="white"/>
<path d="M35.3636 9.35748C35.3636 8.29691 35.2742 7.24066 35.0209 6.20811C34.5661 4.32733 33.4937 2.89061 31.8889 1.83543C31.0633 1.29653 30.1547 0.965639 29.1891 0.791033C28.4474 0.661284 27.6968 0.589929 26.944 0.577627C26.888 0.572238 26.8266 0.560382 26.7641 0.554993H9.4862C9.26741 0.572238 9.04863 0.583016 8.82984 0.593794C7.75745 0.655229 6.69153 0.767322 5.68057 1.1715C3.76105 1.9292 2.37395 3.25383 1.56562 5.16264C1.2854 5.80824 1.14421 6.49265 1.04397 7.18892C0.959906 7.75046 0.91464 8.31739 0.898473 8.88432C0.898473 8.92959 0.887695 8.97378 0.887695 9.01904V26.5841L0.921106 27.1909C0.994395 28.3647 1.14528 29.5266 1.63998 30.6044C2.57226 32.6425 4.13827 33.9833 6.28844 34.6289C6.88876 34.8143 7.51818 34.8984 8.14653 34.9544C8.94408 35.0331 9.74056 35.0439 10.5381 35.0439H26.3901C27.1424 35.0439 27.8946 34.9932 28.6469 34.8984C29.8314 34.7464 30.9426 34.3983 31.9482 33.7365C33.1384 32.9654 34.077 31.8627 34.648 30.5645C34.9174 29.9577 35.0694 29.3132 35.1815 28.6611C35.3442 27.69 35.3776 26.707 35.3776 25.7251C35.3723 20.2682 35.3776 14.8123 35.3723 9.35532L35.3636 9.35748ZM26.1346 15.0882V23.2957C26.1346 23.8961 26.0506 24.4856 25.7811 25.0299C25.3662 25.8771 24.6926 26.4106 23.7883 26.6693C23.2874 26.8128 22.771 26.8957 22.2503 26.9161C21.5955 26.9548 20.9494 26.7514 20.4348 26.3446C19.9203 25.9377 19.5733 25.3559 19.46 24.7098C19.3561 24.1285 19.4459 23.5292 19.7155 23.0039C19.9852 22.4786 20.4198 22.0563 20.9527 21.8019C21.4129 21.5777 21.913 21.443 22.412 21.3417C22.9563 21.2242 23.5005 21.1175 24.0394 20.9935C24.4382 20.9041 24.6958 20.6626 24.7745 20.252C24.7971 20.1625 24.8025 20.0666 24.8025 19.9772V12.1522C24.8006 12.063 24.7875 11.9743 24.7637 11.8882C24.7077 11.6694 24.5503 11.54 24.3261 11.5508C24.0955 11.5616 23.8713 11.6015 23.6471 11.6467C22.5521 11.8602 21.4582 12.079 20.3685 12.3031L15.0529 13.3756C15.0303 13.3809 15.0023 13.3928 14.9796 13.3928C14.5809 13.5049 14.4407 13.6849 14.4235 14.0998C14.4181 14.1613 14.4235 14.2238 14.4235 14.2852C14.4181 18.0242 14.4235 21.7631 14.4181 25.5009C14.4181 26.1077 14.3502 26.7027 14.1099 27.2632C13.7111 28.1836 13.0041 28.7624 12.0502 29.0372C11.546 29.184 11.0253 29.2669 10.5004 29.2841C9.12515 29.3347 7.97947 28.4196 7.74452 27.067C7.54189 25.8997 8.07539 24.6419 9.39998 24.0804C9.91624 23.867 10.4497 23.7495 10.994 23.6374L12.2291 23.3852C12.7788 23.2677 13.0655 22.9196 13.0935 22.358V9.37903C13.0935 9.19904 13.1162 9.02012 13.155 8.84552C13.2563 8.43595 13.5483 8.19991 13.9407 8.10398C14.306 8.00806 14.6822 7.94123 15.0518 7.86255C16.107 7.64915 17.1567 7.43574 18.2119 7.22772L21.4732 6.56487C22.4389 6.3741 23.3982 6.17793 24.3638 5.98716C24.6786 5.92573 24.9987 5.85782 25.3177 5.83519C25.7606 5.79639 26.07 6.07662 26.1152 6.52607C26.126 6.63277 26.1325 6.73947 26.1325 6.84618V15.0817L26.1346 15.0882Z" fill="#3D3D3D"/>
</svg>
