<svg width="34" height="34" viewBox="0 0 34 34" fill="none" xmlns="http://www.w3.org/2000/svg">
<ellipse cx="16.8651" cy="16.7046" rx="15.745" ry="15.745" fill="white"/>
<path d="M16.8639 0.150085C7.70467 0.150085 0.25293 7.60321 0.25293 16.7624C0.25293 25.93 7.70467 33.3859 16.8639 33.3859C26.0314 33.3859 33.4887 25.9286 33.4887 16.7624C33.4887 7.60321 26.0314 0.150085 16.8639 0.150085ZM8.43447 22.8667C10.3364 22.2841 12.3142 21.9864 14.3034 21.9832C17.6463 21.9832 20.9464 22.8307 23.8476 24.4344C24.0207 24.5285 24.1771 24.8387 24.2492 25.2265C24.3184 25.6142 24.2907 26.0117 24.1772 26.218C24.1236 26.3162 24.0512 26.4027 23.964 26.4726C23.8768 26.5426 23.7765 26.5945 23.6691 26.6254C23.5617 26.6563 23.4492 26.6656 23.3381 26.6527C23.2271 26.6399 23.1197 26.6051 23.0222 26.5504C20.8912 25.3814 18.5472 24.6522 16.1291 24.4063C13.711 24.1603 11.2682 24.4025 8.94547 25.1185C8.83884 25.1529 8.72642 25.1659 8.61475 25.1565C8.50308 25.1471 8.39439 25.1155 8.29502 25.0637C8.19566 25.0119 8.10759 24.9409 8.03595 24.8547C7.96432 24.7685 7.91055 24.6689 7.87777 24.5618C7.7296 24.0771 8.03564 22.9969 8.43447 22.8667ZM7.71021 16.7458C9.85883 16.1621 12.0755 15.8664 14.302 15.8665C18.3097 15.8665 22.2883 16.8358 25.8099 18.6721C26.0577 18.7967 26.2392 19.01 26.3222 19.2703C26.3642 19.4018 26.3795 19.5404 26.3671 19.6778C26.3548 19.8153 26.315 19.9489 26.2502 20.0708C25.9359 20.6856 25.5675 21.0997 25.3363 21.0997C25.1675 21.099 25.0014 21.0581 24.8516 20.9806C21.5961 19.281 17.9757 18.3998 14.3034 18.4131C12.2606 18.409 10.2268 18.6816 8.25721 19.2233C8.12582 19.2592 7.98864 19.2689 7.8535 19.2518C7.71837 19.2347 7.58792 19.1911 7.46962 19.1236C7.35131 19.0561 7.24746 18.9659 7.164 18.8583C7.08053 18.7507 7.01909 18.6276 6.98318 18.4962C6.82807 17.9118 7.18397 16.8898 7.71021 16.7458ZM7.52326 12.7492C7.36739 12.7892 7.20513 12.798 7.04587 12.7749C6.8866 12.7519 6.73348 12.6975 6.59533 12.615C6.45718 12.5325 6.33674 12.4234 6.24097 12.2941C6.1452 12.1648 6.07599 12.0178 6.03734 11.8615C5.86701 11.1719 6.29769 10.3715 6.92363 10.2136C9.33808 9.61891 11.8154 9.31716 14.302 9.31485C19.0796 9.31485 23.6578 10.3895 27.9065 12.5096C28.1984 12.6548 28.4207 12.9099 28.5246 13.2189C28.6285 13.528 28.6054 13.8656 28.4604 14.1576C28.2624 14.5564 27.8331 14.9857 27.3595 14.9857C27.1738 14.985 26.9904 14.9439 26.8222 14.8652C22.9371 12.9163 18.6484 11.9078 14.302 11.9211C12.0378 11.9211 9.75698 12.1994 7.52326 12.7492Z" fill="#3D3D3D"/>
</svg>
