<svg width="35" height="34" viewBox="0 0 35 34" fill="none" xmlns="http://www.w3.org/2000/svg">
<rect x="4" y="3" width="27" height="29" fill="white"/>
<path d="M30.6578 0H3.83222C2.81585 0 1.84111 0.395354 1.12243 1.09909C0.403751 1.80282 0 2.75729 0 3.75252V30.0202C0 31.0154 0.403751 31.9699 1.12243 32.6736C1.84111 33.3773 2.81585 33.7727 3.83222 33.7727H30.6578C31.6741 33.7727 32.6489 33.3773 33.3676 32.6736C34.0863 31.9699 34.49 31.0154 34.49 30.0202V3.75252C34.49 2.75729 34.0863 1.80282 33.3676 1.09909C32.6489 0.395354 31.6741 0 30.6578 0ZM20.9623 22.1586L16.7277 26.2677C15.4822 27.5248 13.8343 28.1439 12.1865 28.1439C10.5386 28.1439 8.89076 27.5248 7.66444 26.2677C5.11602 23.8473 5.11602 19.8508 7.66444 17.3742L10.2512 14.8225L10.232 15.9482C10.2129 16.8864 10.3662 17.8245 10.6727 18.65L10.7685 18.9315L10.0021 19.7007C9.71173 19.9797 9.48107 20.3125 9.32361 20.6798C9.16614 21.047 9.08504 21.4414 9.08504 21.8397C9.08504 22.238 9.16614 22.6323 9.32361 22.9996C9.48107 23.3668 9.71173 23.6997 10.0021 23.9786C11.1709 25.1419 13.202 25.1419 14.3708 23.9786L18.5863 19.8696C19.1611 19.288 19.506 18.5187 19.506 17.7119C19.506 16.8864 19.1611 16.1546 18.5863 15.573C18.4287 15.4211 18.3036 15.24 18.2181 15.0403C18.1327 14.8406 18.0887 14.6262 18.0887 14.4097C18.0887 14.1932 18.1327 13.9788 18.2181 13.7791C18.3036 13.5794 18.4287 13.3983 18.5863 13.2464C19.2186 12.6272 20.3299 12.646 20.9623 13.2464C22.1694 14.4472 22.84 16.0233 22.84 17.7119C22.84 19.4005 22.1694 20.9766 20.9623 22.1586M26.8256 16.3985L24.258 18.9502V17.8245C24.2771 16.8864 24.1238 15.9482 23.8173 15.1227L23.7215 14.86L24.4879 14.072C24.7783 13.793 25.0089 13.4602 25.1664 13.0929C25.3239 12.7257 25.405 12.3313 25.405 11.933C25.405 11.5347 25.3239 11.1404 25.1664 10.7731C25.0089 10.4059 24.7783 10.073 24.4879 9.79408C23.3191 8.6308 21.2688 8.64957 20.1192 9.79408L15.9037 13.9219C15.3289 14.4847 14.984 15.254 14.984 16.0608C14.984 16.8864 15.3289 17.6181 15.9037 18.1997C16.2295 18.4999 16.4019 18.9127 16.4019 19.363C16.4019 19.8133 16.2295 20.2261 15.9037 20.5263C15.7477 20.6782 15.5622 20.7979 15.3582 20.8785C15.1541 20.959 14.9357 20.9988 14.7157 20.9954C14.2942 20.9954 13.8535 20.8453 13.5277 20.5263C12.3223 19.3437 11.6453 17.7411 11.6453 16.0702C11.6453 14.3993 12.3223 12.7967 13.5277 11.6141L17.7624 7.50505C18.3531 6.9147 19.0581 6.44571 19.8362 6.12554C20.6144 5.80537 21.4499 5.64045 22.294 5.64045C23.138 5.64045 23.9735 5.80537 24.7517 6.12554C25.5298 6.44571 26.2349 6.9147 26.8256 7.50505C28.071 8.66833 28.7417 10.2444 28.7417 11.933C28.7417 13.6217 28.071 15.1977 26.8256 16.3985V16.3985Z" fill="#3D3D3D"/>
</svg>
