<svg width="27" height="28" viewBox="0 0 27 28" fill="none" xmlns="http://www.w3.org/2000/svg">
<path d="M2.1764 26.0003L7.62644 20.2096M7.62644 20.2096C6.69419 19.2191 5.95469 18.0432 5.45016 16.749C4.94562 15.4548 4.68595 14.0677 4.68595 12.6669C4.68595 11.2661 4.94562 9.87905 5.45015 8.58488C5.95468 7.29071 6.69419 6.11479 7.62644 5.12427C8.55869 4.13376 9.66543 3.34804 10.8835 2.81197C12.1015 2.27591 13.407 2 14.7254 2C16.0438 2 17.3493 2.27591 18.5674 2.81197C19.7854 3.34804 20.8921 4.13376 21.8244 5.12427C23.7072 7.12471 24.7649 9.83789 24.7649 12.6669C24.7649 15.496 23.7072 18.2092 21.8244 20.2096C19.9416 22.21 17.3881 23.3339 14.7254 23.3339C12.0628 23.3339 9.50921 22.21 7.62644 20.2096Z" stroke="#ffffff" stroke-width="4" stroke-linecap="round" stroke-linejoin="round"/>
</svg>
